<svg viewBox="0 0 32 32" fill="#000000" xmlns="http://www.w3.org/2000/svg">
    <path fill-rule="evenodd" clip-rule="evenodd" d="M9 0C4.02944 0 0 4.02944 0 9V23C0 27.9706 4.02944 32 9 32H23C27.9706 32 32 27.9706 32 23V9C32 4.02944 27.9706 0 23 0H9ZM20.0686 9.11832C19.468 9.11939 18.8734 9.24068 18.3177 9.47545C17.8148 8.85789 17.2105 8.3361 16.5323 7.93385C17.4334 7.54724 18.3968 7.3384 19.3727 7.31818C19.4254 7.31701 19.4781 7.31642 19.5307 7.31642C22.0446 7.25047 24.3757 8.66463 25.5391 10.9614C25.5724 11.0762 25.5836 11.2526 25.5254 11.2841C25.4216 11.3408 25.4082 11.3479 25.1345 11.0689C23.7866 9.71469 21.9482 9.00681 20.0686 9.11832ZM27.2915 15.4458C27.2342 14.9265 26.8892 14.9252 26.8204 14.9307C26.6373 14.9324 22.6822 14.9577 22.0518 14.9394C21.7359 14.9303 21.643 14.9958 21.6242 15.0134C21.6186 15.0802 21.5711 15.676 21.5711 16.1506C21.5711 16.3827 21.5711 16.3871 22.0809 16.4783C22.2359 16.506 22.4289 16.5405 22.66 16.5936C22.8018 16.6263 22.9279 16.654 23.041 16.6789L23.054 16.6818C23.5246 16.719 23.9702 16.9113 24.3232 17.2294C24.7657 17.6575 24.3378 19.072 24.2475 19.3511C23.5221 21.8722 21.8577 23.3213 19.6828 23.3213C19.2618 23.3213 18.843 23.2593 18.4395 23.1373C17.847 23.7809 17.1609 24.3287 16.4051 24.7616C17.3303 25.1718 18.3289 25.384 19.3385 25.3848C23.7548 25.3848 27.3478 21.3447 27.3478 16.3784L27.348 16.3728C27.3482 16.0629 27.3293 15.7533 27.2915 15.4458ZM14.4425 16.1877C14.3885 13.9684 15.29 11.8344 16.9141 10.3363C16.0652 9.86229 15.1245 9.57986 14.1568 9.50848C12.3125 11.2882 11.2837 13.7605 11.3161 16.3348C11.2972 18.7291 12.1808 21.0413 13.7882 22.8032C14.6963 22.6328 15.5135 22.1387 16.0906 21.4111C14.9696 19.909 14.3884 18.067 14.4425 16.1877ZM12.7706 7.44551C12.7183 7.44551 12.666 7.44608 12.6136 7.44723C7.95961 7.70539 4.37741 11.7045 4.57969 16.416C4.57969 21.3614 8.18176 25.3848 12.6091 25.3848C17.0175 25.3848 20.6041 21.3645 20.6041 16.4229V16.4167C20.6045 16.1086 20.5857 15.8008 20.5478 15.4951C20.4903 14.9759 20.1401 14.9955 20.1008 14.9995C19.9137 15.0017 15.9551 15.0268 15.3242 15.0085C15.185 14.9879 15.043 15.01 14.9164 15.072C14.9084 15.1702 14.8639 15.7394 14.8639 16.1958C14.8639 16.4142 14.8639 16.4142 15.3572 16.5021C15.5125 16.5298 15.7059 16.5643 15.9375 16.6174C16.0802 16.6501 16.207 16.6779 16.3205 16.7028L16.3318 16.7053C16.8066 16.7427 17.2562 16.9364 17.6119 17.2567C18.0525 17.6812 17.6692 19.0002 17.5413 19.3945C16.8132 21.9173 15.1403 23.3681 12.9538 23.3681C9.93126 23.3681 7.65184 20.3163 7.65184 16.2692C7.65184 12.3549 10.1889 9.17022 13.3075 9.17022C15.189 9.06099 17.0293 9.75713 18.3785 11.0885C18.64 11.3505 18.65 11.346 18.744 11.2955C18.7892 11.2715 18.7788 11.1081 18.7484 11.0056C17.5905 8.76191 15.2714 7.38074 12.7706 7.44551Z" style="fill: white;"></path>
</svg>
